<svg width="40" height="40" viewBox="0 0 40 40" fill="none" xmlns="http://www.w3.org/2000/svg">
    <rect width="40" height="40" rx="9" fill="#5B4DFF"/>
    <g fill="none" stroke="#FFFFFF" stroke-width="2" stroke-linecap="round" stroke-linejoin="round">
        <path d="M14 10c-2 0-2.5 1-2.5 3v3c0 2-1 3-2.5 4 1.5 1 2.5 2 2.5 4v3c0 2 .5 3 2.5 3"/>
        <path d="M26 10c2 0 2.5 1 2.5 3v3c0 2 1 3 2.5 4-1.5 1-2.5 2-2.5 4v3c0 2-.5 3-2.5 3"/>
    </g>
    <g fill="none" stroke="#FFC145" stroke-width="2" stroke-linecap="round" stroke-linejoin="round">
        <path d="M23.6 15.2c-1.1-1.3-2.3-1.8-3.7-1.8-2.3 0-3.9 1.3-3.9 3.2 0 2 1.6 2.9 4 3.5 2.4.6 4 1.6 4 3.6 0 2-1.6 3.3-3.9 3.3-1.6 0-3-.6-4.2-1.9"/>
        <path d="M20 11.8V28.2"/>
    </g>
</svg>
