<svg width="16" height="16" viewBox="0 0 16 16" fill="none" xmlns="http://www.w3.org/2000/svg">
  <path d="M3.5 1.5h5.29a1 1 0 0 1 .707.293l2.71 2.71a1 1 0 0 1 .293.707V13.5a1 1 0 0 1-1 1h-8a1 1 0 0 1-1-1v-11a1 1 0 0 1 1-1z" fill="#FFFFFF" stroke="#6C707E" stroke-width="1"/>
  <path d="M9 1.6V4a1 1 0 0 0 1 1h2.4" stroke="#6C707E" stroke-width="1"/>
  <path d="M11.6 9.5 10.31 10.46 10.55 12.05 8.96 11.81 8 13.1 7.04 11.81 5.45 12.05 5.69 10.46 4.4 9.5 5.69 8.54 5.45 6.95 7.04 7.19 8 5.9 8.96 7.19 10.55 6.95 10.31 8.54Z" fill="#3574F0"/>
  <circle cx="8" cy="9.5" r="1.25" fill="#FFFFFF"/>
</svg>
